<?xml version="1.0" encoding="UTF-8" standalone="no"?>
<svg width="1023px" height="236px" version="1.1" xmlns="http://www.w3.org/2000/svg" xmlns:xlink="http://www.w3.org/1999/xlink" xmlns:sketch="http://www.bohemiancoding.com/sketch/ns">
    <title>back1</title>
    <description>Created with Sketch (http://www.bohemiancoding.com/sketch)</description>
    <defs></defs>
    <g id="Page 1" fill="rgb(223,223,223)" fill-rule="evenodd">
        <path d="M-1.58984375,176.925781 L27.4257812,181.527344 L69.2070312,177.574219 L116.886719,188.433594 L171.864099,175.162757 L228.316406,177.777344 L273.097656,186.332031 L320.230469,172.671875 L344.59375,182.726562 L385.371094,177.925781 L431.402344,188.183594 L546.578125,179.726562 L592.960938,186.980469 L634.1875,175.070312 L659.253906,184.179688 L698.179687,178.574219 L747.414062,189.234375 L857.34375,179.828125 L902.023437,185.382812 L944.652344,176.273438 L964.96875,182.230469 L1009.79297,183.476562 L1023.65234,177.28125 L1023.65234,230.515625 L-1.640625,232.015625 L-1.58984375,176.925781 Z M-1.58984375,176.925781" id="Path 1" fill="rgb(240,236,235)"></path>
        <path d="M-1.58984375,180.925781 L27.4257812,185.527344 L69.2070312,181.574219 L116.886719,192.433594 L171.864099,179.162757 L228.316406,181.777344 L273.097656,190.332031 L320.230469,176.671875 L344.59375,186.726562 L385.371094,181.925781 L431.402344,192.183594 L546.578125,183.726562 L592.960938,190.980469 L634.1875,179.070312 L659.253906,188.179688 L698.179687,182.574219 L747.414062,193.234375 L857.34375,183.828125 L902.023437,189.382812 L944.652344,180.273438 L964.96875,186.230469 L1009.79297,187.476562 L1023.65234,181.28125 L1023.65234,234.515625 L-1.640625,236.015625 L-1.58984375,180.925781 Z M-1.58984375,180.925781" id="Path 1" fill="rgb(250,250,250)"></path>
    </g>
</svg>